<svg t="1617523340985" class="icon" viewBox="0 0 1024 1024" version="1.1" xmlns="http://www.w3.org/2000/svg" p-id="2387" width="200" height="200"><path d="M968.145455 214.109091C930.909091 146.618182 877.381818 93.090909 809.890909 55.854545 742.4 18.618182 663.272727 0 542.254545 0h-62.836363c-118.690909 0-197.818182 18.618182-265.309091 55.854545C146.618182 93.090909 93.090909 146.618182 55.854545 214.109091 18.618182 281.6 0 360.727273 0 481.745455v62.836363c0 118.690909 18.618182 197.818182 55.854545 265.309091C93.090909 877.381818 146.618182 930.909091 214.109091 968.145455c67.490909 37.236364 146.618182 55.854545 265.309091 55.854545h62.836363c118.690909 0 197.818182-18.618182 265.309091-55.854545 67.490909-37.236364 121.018182-90.763636 158.254546-158.254546 37.236364-67.490909 55.854545-146.618182 55.854545-265.309091v-62.836363c2.327273-121.018182-16.290909-200.145455-53.527272-267.636364z m-702.836364 202.472727l237.381818-158.254545c4.654545-2.327273 9.309091-2.327273 13.963636 0l237.381819 158.254545c9.309091 6.981818 4.654545 20.945455-6.981819 20.945455H272.290909c-11.636364 0-16.290909-13.963636-6.981818-20.945455z m148.945454 244.363637v-158.254546c0-6.981818 4.654545-11.636364 11.636364-11.636364h51.2c6.981818 0 11.636364 4.654545 11.636364 11.636364v158.254546h37.236363v-158.254546c0-6.981818 4.654545-11.636364 11.636364-11.636364h51.2c6.981818 0 11.636364 4.654545 11.636364 11.636364v158.254546h37.236363v-158.254546c0-6.981818 4.654545-11.636364 11.636364-11.636364h51.2c6.981818 0 11.636364 4.654545 11.636364 11.636364v197.818182c0 6.981818-4.654545 11.636364-11.636364 11.636364H314.181818c-6.981818 0-11.636364-4.654545-11.636363-11.636364v-197.818182c0-6.981818 4.654545-11.636364 11.636363-11.636364h51.2c6.981818 0 11.636364 4.654545 11.636364 11.636364v158.254546h37.236363z m344.436364 116.363636c0 6.981818-4.654545 11.636364-11.636364 11.636364H267.636364c-6.981818 0-11.636364-4.654545-11.636364-11.636364v-27.927273c0-6.981818 4.654545-11.636364 11.636364-11.636363h479.418181c6.981818 0 11.636364 4.654545 11.636364 11.636363v27.927273z" p-id="2388"></path></svg>